<svg id="图层_1" data-name="图层 1" xmlns="http://www.w3.org/2000/svg" viewBox="0 0 24 24"><defs><style>.cls-1{fill:#4ed3ff;}.cls-2{fill:#fff;fill-rule:evenodd;}</style></defs><title>icon切图</title><g id="椭圆_2" data-name="椭圆 2"><circle class="cls-1" cx="12" cy="12" r="12"/></g><g id="jiaoyu_拷贝" data-name="jiaoyu 拷贝"><path class="cls-2" d="M20.18,8.59a1.47,1.47,0,0,0-.8-.7L13.56,5.66a3.24,3.24,0,0,0-2.49,0L5.21,7.89a1.47,1.47,0,0,0-.8.7,2,2,0,0,0,0,1.83,1.47,1.47,0,0,0,.8.7l.57.22v5H5.46l0,0v2.8l0,0H6.93l0,0v-2.8l0,0H6.55V11.63l.62.24v3.06c0,1.05,2.93,1.9,5.35,1.9s5.35-.85,5.35-1.9V11.7l1.51-.58a1.47,1.47,0,0,0,.8-.7A2,2,0,0,0,20.18,8.59ZM12.52,16a8.07,8.07,0,0,1-4.58-1.11V12.16l3.12,1.2a3.17,3.17,0,0,0,1.19.21,3.85,3.85,0,0,0,1.27-.21L17.1,12v2.88C17,15.17,15.13,16,12.52,16Zm7-6a.7.7,0,0,1-.38.32l-5.85,2.24a2.88,2.88,0,0,1-1.91,0L5.48,10.37a.7.7,0,0,1-.38-.32A1.22,1.22,0,0,1,5.1,9a.7.7,0,0,1,.38-.32l5.88-2.26a2.39,2.39,0,0,1,1-.17,2.17,2.17,0,0,1,.94.19l5.86,2.25a.7.7,0,0,1,.38.32A1.23,1.23,0,0,1,19.49,10.05Z"/></g></svg>