<svg id="图层_1" data-name="图层 1" xmlns="http://www.w3.org/2000/svg" viewBox="0 0 24 24"><defs><style>.cls-1{fill:#97aaff;}.cls-2{fill:#fff;fill-rule:evenodd;}</style></defs><title>icon切图</title><g id="椭圆_1" data-name="椭圆 1"><circle class="cls-1" cx="12" cy="12" r="12"/></g><g id="形状_1" data-name="形状 1"><path class="cls-2" d="M12,4.4A7.6,7.6,0,1,0,19.6,12,7.62,7.62,0,0,0,12,4.4Zm0,14.25A6.65,6.65,0,1,1,18.65,12,6.67,6.67,0,0,1,12,18.65Zm2.38-4.09h.09a.41.41,0,0,0,.38-.38V11.53c.57,0,1-.76,1-1a.42.42,0,1,0-.76-.38c-.1.28-.29.57-.38.57a1.48,1.48,0,0,1-1.23-.76l2.09-.29c.28,0,.38-.29.38-.48s-.19-.38-.48-.38L13,9.15c-.28-.67-.48-1.23-.48-1.23a.39.39,0,1,0-.76.19,3.58,3.58,0,0,0,.38,1.14l-1.61.28c-.1,0-.19.1-.29.19V9.06l.95-.67a.46.46,0,0,0,.1-.66c-.1-.19-.38-.19-.57-.1L7.92,9.53a.59.59,0,0,0-.1.67.72.72,0,0,0,.38.19.33.33,0,0,0,.19-.09l.85-.57v4.37a.45.45,0,0,0,.47.48.51.51,0,0,0,.48-.48v-1.9H14v1.9a.42.42,0,0,0,.28.38,6.19,6.19,0,0,0-1.71-.38c-.19,0-.48.19-.48.38s.19.47.38.47a7.75,7.75,0,0,1,2.85,1,.35.35,0,0,0,.29.1c.1,0,.19,0,.28-.19s.19-.38,0-.57A5.67,5.67,0,0,0,14.38,14.57ZM10.2,11.43V10.2a.49.49,0,0,0,.38.19l2-.28a3,3,0,0,0,1.71,1.33Zm3.23-3,.85.48h.19a.51.51,0,0,0,.38-.28A.42.42,0,0,0,14.56,8l-.76-.38a.42.42,0,0,0-.38.76Zm-1.33,4.18a.43.43,0,0,0-.47.38,2,2,0,0,1-1,1.52,2.57,2.57,0,0,1-2,.38.52.52,0,0,0-.47.28.4.4,0,0,0,.28.57,3.92,3.92,0,0,0,.85.09,3,3,0,0,0,1.81-.57A2.79,2.79,0,0,0,12.47,13,.41.41,0,0,0,12.09,12.57Z"/></g></svg>