<svg id="图层_1" data-name="图层 1" xmlns="http://www.w3.org/2000/svg" viewBox="0 0 24 24"><defs><style>.cls-1{fill:#ffb34c;}.cls-2{fill:#fff;fill-rule:evenodd;}</style></defs><title>icon切图</title><g id="椭圆_2" data-name="椭圆 2"><circle class="cls-1" cx="12" cy="12" r="12"/></g><g id="laoren_拷贝_2" data-name="laoren 拷贝 2"><path class="cls-2" d="M16.66,12.94h-.11v0a1,1,0,0,0-1-1l-.25,0A5.29,5.29,0,0,0,10.7,9.43,5.28,5.28,0,0,0,6.08,12a8.36,8.36,0,0,0-1.19,7.43H5v0h9.42V14.88h0l.55-1.15a1.1,1.1,0,0,0,1.23,0,1.46,1.46,0,0,1,.51-.09,1.36,1.36,0,0,1,1.4,1.32V19h.7V14.92A2,2,0,0,0,16.66,12.94Zm-2.18.15a.34.34,0,0,0-.07.09l-.7,1.48a.31.31,0,0,0,0,.22h0v4H5.43a7.72,7.72,0,0,1,1.33-6.56h0l.09-.14L6.95,12h0a4.67,4.67,0,0,1,7.72.34.95.95,0,0,0-.19.78Zm1,.15a.33.33,0,1,1,.35-.33A.34.34,0,0,1,15.51,13.24ZM9.91,8a.77.77,0,0,0,1,.43l.82-.28a3,3,0,0,0,1.56,1.54,3.21,3.21,0,0,0,1.32.28,3.31,3.31,0,0,0,1.07-.18,2.93,2.93,0,0,0,1.92-3.66l.69-.24a.74.74,0,0,0,.43-.37.67.67,0,0,0,0-.54l0-.1a.73.73,0,0,0-.39-.4.79.79,0,0,0-.58,0l-.55.19-.69-1.05a1,1,0,0,0-1.26-.53L11.29,4.4a.93.93,0,0,0-.6,1.17l.18,1.23L10.32,7a.74.74,0,0,0-.43.37.67.67,0,0,0,0,.54Zm5.54,1.25a2.64,2.64,0,0,1-1.94-.08A2.46,2.46,0,0,1,12.26,8L17,6.35A2.38,2.38,0,0,1,15.44,9.26ZM11.5,4.93l3.9-1.34.14,0a.4.4,0,0,1,.37.25v0l.64,1L11.44,6.57l-.17-1.14v0A.37.37,0,0,1,11.5,4.93ZM10.43,7.6a.16.16,0,0,1,.09-.08L17.9,5H18a.16.16,0,0,1,.08.09l0,.1a.15.15,0,0,1,0,.12.16.16,0,0,1-.09.08L10.67,7.9a.16.16,0,0,1-.21-.09l0-.1A.15.15,0,0,1,10.43,7.6Z"/></g></svg>