<svg id="图层_1" data-name="图层 1" xmlns="http://www.w3.org/2000/svg" viewBox="0 0 24 24"><defs><style>.cls-1{fill:#76d981;}.cls-2{fill:#fff;fill-rule:evenodd;}</style></defs><title>icon切图</title><g id="椭圆_2" data-name="椭圆 2"><circle class="cls-1" cx="12" cy="12" r="12"/></g><g id="zinv"><path class="cls-2" d="M14.27,17.17a4.57,4.57,0,0,1-1.1.49,4.27,4.27,0,0,1-2.38,0,4.89,4.89,0,0,1-1.1-.49.44.44,0,1,0-.48.75,5.48,5.48,0,0,0,1.33.59,5,5,0,0,0,1.43.22,5.15,5.15,0,0,0,1.43-.22,5.05,5.05,0,0,0,1.35-.59.44.44,0,0,0,.14-.61A.43.43,0,0,0,14.27,17.17Zm.22-3.27a.74.74,0,0,0-.74.75.71.71,0,0,0,.74.73.74.74,0,0,0,.74-.73A.76.76,0,0,0,14.49,13.89Zm-4.28.73a.76.76,0,0,0-.74-.75.74.74,0,0,0-.74.75.73.73,0,0,0,.74.73A.71.71,0,0,0,10.21,14.62Zm9.72-2.51C19.55,7.7,16.81,3.75,12,3.75s-7.54,4-7.94,8.36A2.79,2.79,0,0,0,3,14.3a2.72,2.72,0,0,0,.71,1.85,2.69,2.69,0,0,0,1.4.85,8,8,0,0,0,2.55,2.75l.22.15.29.17c.17.09.36.18.55.26h0l.09,0,1.07.38c.29.07.59.14.9.19v0A9.34,9.34,0,0,0,12,21a6.78,6.78,0,0,0,1.19-.08v0c.31-.05.6-.1.9-.17v0a9.29,9.29,0,0,0,1.14-.38v0h0v.05c.21-.08.41-.19.62-.29l.29-.17.22-.15A8.19,8.19,0,0,0,18.91,17a2.91,2.91,0,0,0,1.4-.85,2.79,2.79,0,0,0-.38-4ZM12,4.48c4.18,0,6.51,3.34,7,7.17-2.78.56-4.56.41-5.85-.22A9.56,9.56,0,0,1,9.71,8a.43.43,0,0,0-.62-.1.44.44,0,0,0-.19.36,3,3,0,0,1-1.26,2.66A5.82,5.82,0,0,1,5,11.67C5.45,7.85,7.78,4.48,12,4.48Zm7.82,10.89a1.58,1.58,0,0,1-1,.51.77.77,0,0,0-.6.46,7.23,7.23,0,0,1-2.59,2.78,7,7,0,0,1-3.66,1,6.68,6.68,0,0,1-2.35-.41,7.14,7.14,0,0,1-1.31-.63,7.26,7.26,0,0,1-2.62-2.85.69.69,0,0,0-.57-.39,1.42,1.42,0,0,1-.95-.51A1.52,1.52,0,0,1,4.55,13a.74.74,0,0,0,.35-.47,6.73,6.73,0,0,0,3.24-.87A3.44,3.44,0,0,0,9.68,9.47a8.06,8.06,0,0,0,3.07,2.76c1.45.71,3.38.9,6.33.31a.81.81,0,0,0,.35.51,1.5,1.5,0,0,1,.76,1.31A1.73,1.73,0,0,1,19.79,15.37Z"/></g></svg>