<svg id="图层_1" data-name="图层 1" xmlns="http://www.w3.org/2000/svg" viewBox="0 0 24 24"><defs><style>.cls-1{fill:#ffd000;}.cls-2{fill:#fff;fill-rule:evenodd;}</style></defs><title>icon切图</title><g id="椭圆_2" data-name="椭圆 2"><circle class="cls-1" cx="12" cy="12" r="12"/></g><g id="gongjijin"><path class="cls-2" d="M20.81,9.7,13.44,3.46h0a1.63,1.63,0,0,0-2.28,0h0L3.79,9.7a.55.55,0,0,0-.08.74.47.47,0,0,0,.7.09l.47-.39V17.4a1.77,1.77,0,0,0,1.74,1.8H17.93a1.69,1.69,0,0,0,1.23-.53,1.81,1.81,0,0,0,.51-1.27V10.09l.53.45a.47.47,0,0,0,.7-.09A.55.55,0,0,0,20.81,9.7ZM18.7,17.4a.79.79,0,0,1-.78.8H6.61a.79.79,0,0,1-.78-.8V9.33l5.4-4.58a1.62,1.62,0,0,1,2.13,0L18.7,9.27ZM11,9.77a.57.57,0,0,0-.78,0,.58.58,0,0,0,0,.79l1.33,1.33H10.27a.57.57,0,0,0,0,1.14h1.46v.76H10.27a.57.57,0,0,0,0,1.14h1.46v1a.58.58,0,0,0,.17.41.57.57,0,0,0,.4.17h0a.57.57,0,0,0,.4-.17.58.58,0,0,0,.17-.41V15h1.46a.57.57,0,0,0,0-1.14H12.87v-.76h1.46a.57.57,0,0,0,0-1.14H13.11l1.33-1.33a.57.57,0,0,0-.24-1,.57.57,0,0,0-.57.18L12.3,11.11Z"/></g></svg>